<?xml version="1.0" standalone="no"?>
<!DOCTYPE svg PUBLIC "-//W3C//DTD SVG 20010904//EN"
 "http://www.w3.org/TR/2001/REC-SVG-20010904/DTD/svg10.dtd">
<svg version="1.0" xmlns="http://www.w3.org/2000/svg"
 width="80.000000pt" height="80.000000pt" viewBox="0 0 80.000000 80.000000"
 preserveAspectRatio="xMidYMid meet">

<g transform="translate(0.000000,80.000000) scale(0.100000,-0.100000)"
fill="#000000" stroke="none">
<path d="M4370 8950 l0 -360 1680 0 1680 0 0 360 0 360 -1680 0 -1680 0 0
-360z"/>
<path d="M5071 8534 c-154 -27 -282 -87 -402 -189 -131 -109 -223 -253 -271
-421 -19 -65 -22 -103 -22 -219 0 -163 13 -222 78 -360 138 -290 412 -471 726
-480 117 -3 191 8 298 45 284 97 501 347 556 640 l12 65 23 -96 c72 -312 324
-563 641 -640 90 -21 290 -17 383 9 256 72 444 228 552 457 63 133 79 206 79
360 0 159 -16 231 -85 370 -78 162 -232 313 -395 390 -224 107 -503 106 -716
-1 -186 -93 -326 -237 -410 -422 -33 -72 -67 -189 -69 -237 0 -16 -7 2 -14 42
-40 221 -143 385 -344 545 -54 43 -190 107 -276 129 -98 25 -246 31 -344 13z"/>
<path d="M5089 6809 c-73 -9 -183 -46 -269 -89 -174 -88 -330 -265 -398 -452
-121 -336 -23 -707 249 -936 164 -138 363 -206 574 -196 308 14 586 198 719
477 44 91 75 195 77 253 0 16 13 -21 29 -82 146 -581 794 -831 1293 -500 158
105 292 297 343 491 25 96 25 303 0 400 -31 122 -106 261 -191 353 -184 198
-377 285 -630 285 -143 -1 -238 -23 -362 -84 -184 -91 -321 -231 -404 -414
-33 -73 -69 -195 -70 -240 0 -16 -7 4 -15 47 -31 173 -101 306 -228 434 -132
132 -238 195 -394 234 -94 23 -227 31 -323 19z"/>
<path d="M4370 4731 l0 -360 108 -3 c59 -2 814 -3 1677 -3 l1570 0 0 360 0
360 -1677 3 -1678 2 0 -359z"/>
<path d="M3750 2864 l0 -565 253 3 c231 3 255 5 286 23 19 11 43 33 55 48 21
28 21 39 24 485 3 522 5 508 -78 550 -42 21 -55 22 -292 22 l-248 0 0 -566z
m400 406 c19 -19 20 -33 20 -401 0 -243 -4 -387 -10 -400 -10 -17 -22 -19
-110 -19 l-100 0 0 413 c0 228 3 417 7 420 3 4 44 7 90 7 70 0 86 -3 103 -20z"/>
<path d="M4528 3168 c-2 -7 -4 -177 -3 -378 1 -340 2 -368 21 -405 26 -54 70
-77 159 -83 85 -5 136 9 165 45 l20 26 0 -37 0 -36 100 0 100 0 0 440 0 440
-100 0 -100 0 0 -344 c0 -400 5 -379 -94 -374 l-61 3 -3 358 -2 357 -99 0
c-70 0 -100 -4 -103 -12z"/>
<path d="M5250 2740 l0 -440 100 0 100 0 0 349 0 350 22 15 c26 18 90 21 119
6 18 -10 19 -25 19 -365 l0 -355 103 0 102 0 0 350 c0 257 4 353 12 361 7 7
36 14 66 17 91 7 87 25 87 -379 l0 -349 100 0 101 0 -3 388 c-3 382 -3 387
-26 423 -31 50 -81 69 -185 69 -89 0 -144 -22 -154 -61 -7 -25 -11 -24 -36 7
-31 40 -76 54 -169 54 -90 -1 -123 -12 -144 -51 -13 -23 -13 -23 -14 14 l0 37
-100 0 -100 0 0 -440z"/>
<path d="M6403 3159 c-30 -15 -48 -33 -63 -64 -20 -42 -21 -55 -18 -369 3
-312 4 -326 24 -353 46 -61 71 -68 264 -68 157 0 179 2 214 21 75 39 76 46 76
414 0 373 -1 378 -80 418 -41 20 -58 22 -210 22 -147 0 -170 -2 -207 -21z
m297 -148 c6 -12 10 -118 10 -275 0 -218 -2 -257 -16 -270 -19 -20 -144 -22
-162 -4 -9 9 -12 86 -12 283 0 150 3 275 7 278 3 4 41 7 84 7 67 0 80 -3 89
-19z"/>
<path d="M7050 2740 l0 -440 100 0 100 0 0 349 0 350 22 15 c26 18 90 21 119
6 18 -10 19 -25 19 -365 l0 -355 103 0 102 0 0 383 c-1 361 -2 385 -20 417
-36 60 -66 75 -166 79 -102 3 -142 -8 -164 -48 l-14 -26 -1 38 0 37 -100 0
-100 0 0 -440z"/>
<path d="M7830 3158 c-70 -36 -80 -67 -80 -233 0 -166 10 -197 80 -232 36 -19
61 -23 133 -23 125 0 127 -2 127 -108 0 -48 -4 -93 -8 -100 -12 -18 -72 -26
-104 -13 -25 10 -28 15 -28 61 l0 50 -100 0 -100 0 0 -63 c0 -79 30 -143 80
-172 31 -18 53 -20 185 -20 133 0 155 2 190 21 69 36 80 67 80 229 0 123 -3
144 -20 175 -35 58 -75 74 -195 78 -82 3 -108 7 -117 20 -16 19 -17 165 -3
193 8 15 21 19 58 19 26 0 52 -4 59 -8 6 -4 13 -30 15 -57 l3 -50 95 0 95 0 3
40 c6 64 -15 139 -47 169 -40 38 -79 46 -226 46 -116 0 -136 -3 -175 -22z"/>
</g>
</svg>
