<svg xmlns="http://www.w3.org/2000/svg" width="1200" height="1200" viewBox="0 0 1200 1200" version="1.1"><path d="M 437 305 L 437 341 605 341 L 773 341 773 305 L 773 269 605 269 L 437 269 437 305 M 507.125 346.557 C 491.712 349.262, 478.926 355.262, 466.868 365.450 C 453.850 376.449, 444.613 390.844, 439.807 407.623 C 437.943 414.134, 437.555 417.927, 437.570 429.500 C 437.591 445.792, 438.888 451.737, 445.423 465.500 C 459.195 494.504, 486.578 512.620, 518 513.514 C 529.716 513.847, 537.060 512.748, 547.820 509.050 C 576.200 499.296, 597.898 474.294, 603.406 445 L 604.628 438.500 606.859 448.135 C 614.077 479.298, 639.254 504.391, 671 512.062 C 680.013 514.240, 700.030 513.776, 709.289 511.174 C 734.904 503.975, 753.749 488.399, 764.548 465.500 C 770.817 452.208, 772.415 444.894, 772.415 429.500 C 772.415 413.613, 770.774 406.437, 763.941 392.455 C 756.071 376.349, 740.721 361.230, 724.356 353.464 C 701.980 342.845, 674.140 342.896, 652.773 353.593 C 634.213 362.885, 620.226 377.281, 611.772 395.794 C 608.460 403.049, 605.099 414.686, 604.927 419.500 C 604.868 421.150, 604.235 419.279, 603.521 415.342 C 599.502 393.194, 589.190 376.842, 569.141 360.823 C 563.686 356.465, 550.085 350.122, 541.500 347.932 C 531.660 345.423, 516.944 344.834, 507.125 346.557 M 508.854 519.122 C 501.599 520.046, 490.627 523.679, 481.993 528.016 C 464.568 536.771, 449 554.462, 442.219 573.213 C 430.056 606.848, 439.891 643.869, 467.070 666.757 C 483.527 680.616, 503.403 687.429, 524.500 686.443 C 555.327 685.001, 583.052 666.582, 596.436 638.653 C 600.763 629.624, 603.930 619.165, 604.073 613.436 C 604.113 611.821, 605.413 615.509, 606.961 621.631 C 621.638 679.680, 686.406 704.707, 736.281 671.601 C 752.136 661.078, 765.528 641.910, 770.590 622.500 C 773.092 612.904, 773.114 592.244, 770.632 582.500 C 767.515 570.258, 759.973 556.380, 751.456 547.212 C 733.058 527.409, 713.755 518.678, 688.500 518.738 C 674.173 518.772, 664.702 520.962, 652.279 527.112 C 633.866 536.228, 620.214 550.225, 611.942 568.468 C 608.634 575.763, 605.043 588.028, 604.910 592.480 C 604.861 594.141, 604.196 592.051, 603.433 587.834 C 600.295 570.488, 593.287 557.180, 580.562 544.396 C 567.423 531.197, 556.776 524.867, 541.189 520.988 C 531.824 518.657, 518.535 517.890, 508.854 519.122 M 437 726.933 L 437 762.871 447.750 763.186 C 453.663 763.359, 529.150 763.500, 615.500 763.500 L 772.500 763.500 772.500 727.500 L 772.500 691.500 604.750 691.247 L 437 690.994 437 726.933 M 375 913.562 L 375 970.125 400.250 969.812 C 423.376 969.526, 425.786 969.332, 428.895 967.500 C 430.763 966.400, 433.238 964.230, 434.395 962.678 C 436.453 959.918, 436.506 958.841, 436.764 914.178 C 437.066 862.033, 437.257 863.395, 429.038 859.250 C 424.769 857.097, 423.506 857, 399.788 857 L 375 857 375 913.562 M 395.667 871.667 C 395.300 872.033, 395 890.933, 395 913.667 L 395 955 404.965 955 C 413.793 955, 415.048 954.779, 415.965 953.066 C 416.626 951.830, 417 937.393, 417 913.066 C 417 867.732, 417.958 871, 404.667 871 C 400.083 871, 396.033 871.300, 395.667 871.667 M 452.787 883.250 C 452.552 883.938, 452.415 900.928, 452.481 921.007 C 452.595 955.028, 452.736 957.784, 454.552 961.479 C 457.226 966.921, 461.620 969.212, 470.475 969.780 C 478.979 970.326, 484.126 968.927, 486.984 965.293 L 489 962.730 489 966.365 L 489 970 499 970 L 509 970 509 926 L 509 882 499 882 L 489 882 489 916.429 C 489 956.435, 489.543 954.271, 479.634 953.795 L 473.500 953.500 473.237 917.750 L 472.975 882 463.094 882 C 456.085 882, 453.090 882.363, 452.787 883.250 M 525 926 L 525 970 535 970 L 545 970 545 935.057 L 545 900.113 547.223 898.557 C 549.757 896.782, 556.194 896.498, 559.066 898.035 C 560.922 899.029, 561 900.496, 561 934.535 L 561 970 571.250 970 L 581.500 970 581.522 935.028 C 581.538 909.303, 581.859 899.741, 582.737 898.863 C 583.393 898.207, 586.339 897.471, 589.285 897.226 C 598.410 896.470, 598 894.690, 598 935.071 L 598 970 608.044 970 L 618.088 970 617.794 931.250 C 617.503 892.956, 617.473 892.457, 615.231 888.851 C 612.134 883.871, 607.077 881.999, 596.730 882.004 C 587.791 882.008, 582.294 884.158, 581.277 888.050 C 580.611 890.595, 580.193 890.516, 577.726 887.379 C 574.618 883.427, 570.078 881.996, 560.782 882.035 C 551.828 882.074, 548.545 883.232, 546.396 887.110 C 545.105 889.439, 545.070 889.404, 545.035 885.750 L 545 882 535 882 L 525 882 525 926 M 640.301 884.080 C 637.270 885.580, 635.516 887.368, 633.999 890.502 C 631.974 894.686, 631.908 896.035, 632.198 927.351 C 632.488 958.589, 632.582 959.967, 634.605 962.679 C 639.204 968.845, 641.739 969.500, 661 969.500 C 676.706 969.500, 678.901 969.290, 682.408 967.450 C 689.863 963.538, 690 962.790, 689.998 926.016 C 689.997 888.666, 689.912 888.220, 682.038 884.250 C 677.947 882.187, 676.201 882, 661.038 882.001 C 646.306 882.001, 644.041 882.229, 640.301 884.080 M 705 926 L 705 970 715 970 L 725 970 725 935.057 L 725 900.113 727.223 898.557 C 729.757 896.782, 736.194 896.498, 739.066 898.035 C 740.922 899.029, 741 900.496, 741 934.535 L 741 970 751.274 970 L 761.547 970 761.474 931.686 C 761.405 895.574, 761.289 893.180, 759.451 890.040 C 755.898 883.972, 752.891 882.540, 742.880 882.149 C 732.694 881.750, 728.657 882.918, 726.500 886.888 L 725.080 889.500 725.040 885.750 L 725 882 715 882 L 705 882 705 926 M 783.036 884.250 C 776.044 887.835, 775 890.857, 775 907.500 C 775 924.143, 776.044 927.165, 783.036 930.750 C 786.612 932.584, 789.063 933, 796.278 933 C 808.804 933, 809.003 933.169, 808.985 943.785 C 808.976 948.578, 808.602 953.078, 808.154 953.785 C 807.003 955.600, 801.015 956.359, 797.750 955.106 C 795.255 954.147, 795 953.584, 795 949.025 L 795 944 785 944 L 775 944 775 950.288 C 775 958.175, 777.978 964.575, 783 967.477 C 786.088 969.262, 788.264 969.500, 801.500 969.500 C 814.794 969.500, 816.955 969.262, 820.500 967.402 C 827.414 963.777, 828.500 960.668, 828.500 944.500 C 828.500 932.220, 828.250 930.074, 826.465 927.035 C 823.040 921.207, 819.019 919.583, 807.007 919.180 C 798.847 918.906, 796.221 918.469, 795.250 917.223 C 793.719 915.257, 793.557 900.697, 795.035 897.934 C 795.836 896.438, 797.137 896.003, 800.785 896.015 C 803.378 896.024, 806.034 896.370, 806.686 896.785 C 807.338 897.199, 808.013 899.780, 808.186 902.519 L 808.500 907.500 818 907.500 L 827.500 907.500 827.839 903.500 C 828.377 897.147, 826.287 889.650, 823.137 886.631 C 819.146 882.808, 815.193 882, 800.468 882 C 788.907 882, 786.925 882.256, 783.036 884.250 M 652.667 897.667 C 652.300 898.033, 652 910.543, 652 925.467 C 652 945.237, 652.326 952.926, 653.200 953.800 C 655.046 955.646, 667.496 955.361, 669.429 953.429 C 670.775 952.082, 671 948.206, 671 926.363 C 671 910.701, 670.601 900.123, 669.965 898.934 C 669.077 897.276, 667.818 897, 661.131 897 C 656.843 897, 653.033 897.300, 652.667 897.667" stroke="none" fill="#d42424" fill-rule="evenodd"/><path d="M 0 600.001 L 0 1200.002 600.250 1199.751 L 1200.500 1199.500 1200.751 599.750 L 1201.002 0 600.501 0 L 0 0 0 600.001 M 0.497 600.500 C 0.497 930.500, 0.611 1065.649, 0.750 900.832 C 0.889 736.015, 0.889 466.015, 0.750 300.832 C 0.611 135.649, 0.497 270.500, 0.497 600.500 M 437 305 L 437 341 605 341 L 773 341 773 305 L 773 269 605 269 L 437 269 437 305 M 507.125 346.557 C 491.712 349.262, 478.926 355.262, 466.868 365.450 C 453.850 376.449, 444.613 390.844, 439.807 407.623 C 437.943 414.134, 437.555 417.927, 437.570 429.500 C 437.591 445.792, 438.888 451.737, 445.423 465.500 C 459.195 494.504, 486.578 512.620, 518 513.514 C 529.716 513.847, 537.060 512.748, 547.820 509.050 C 576.200 499.296, 597.898 474.294, 603.406 445 L 604.628 438.500 606.859 448.135 C 614.077 479.298, 639.254 504.391, 671 512.062 C 680.013 514.240, 700.030 513.776, 709.289 511.174 C 734.904 503.975, 753.749 488.399, 764.548 465.500 C 770.817 452.208, 772.415 444.894, 772.415 429.500 C 772.415 413.613, 770.774 406.437, 763.941 392.455 C 756.071 376.349, 740.721 361.230, 724.356 353.464 C 701.980 342.845, 674.140 342.896, 652.773 353.593 C 634.213 362.885, 620.226 377.281, 611.772 395.794 C 608.460 403.049, 605.099 414.686, 604.927 419.500 C 604.868 421.150, 604.235 419.279, 603.521 415.342 C 599.502 393.194, 589.190 376.842, 569.141 360.823 C 563.686 356.465, 550.085 350.122, 541.500 347.932 C 531.660 345.423, 516.944 344.834, 507.125 346.557 M 508.854 519.122 C 501.599 520.046, 490.627 523.679, 481.993 528.016 C 464.568 536.771, 449 554.462, 442.219 573.213 C 430.056 606.848, 439.891 643.869, 467.070 666.757 C 483.527 680.616, 503.403 687.429, 524.500 686.443 C 555.327 685.001, 583.052 666.582, 596.436 638.653 C 600.763 629.624, 603.930 619.165, 604.073 613.436 C 604.113 611.821, 605.413 615.509, 606.961 621.631 C 621.638 679.680, 686.406 704.707, 736.281 671.601 C 752.136 661.078, 765.528 641.910, 770.590 622.500 C 773.092 612.904, 773.114 592.244, 770.632 582.500 C 767.515 570.258, 759.973 556.380, 751.456 547.212 C 733.058 527.409, 713.755 518.678, 688.500 518.738 C 674.173 518.772, 664.702 520.962, 652.279 527.112 C 633.866 536.228, 620.214 550.225, 611.942 568.468 C 608.634 575.763, 605.043 588.028, 604.910 592.480 C 604.861 594.141, 604.196 592.051, 603.433 587.834 C 600.295 570.488, 593.287 557.180, 580.562 544.396 C 567.423 531.197, 556.776 524.867, 541.189 520.988 C 531.824 518.657, 518.535 517.890, 508.854 519.122 M 437 726.933 L 437 762.871 447.750 763.186 C 453.663 763.359, 529.150 763.500, 615.500 763.500 L 772.500 763.500 772.500 727.500 L 772.500 691.500 604.750 691.247 L 437 690.994 437 726.933 M 375 913.562 L 375 970.125 400.250 969.812 C 423.376 969.526, 425.786 969.332, 428.895 967.500 C 430.763 966.400, 433.238 964.230, 434.395 962.678 C 436.453 959.918, 436.506 958.841, 436.764 914.178 C 437.066 862.033, 437.257 863.395, 429.038 859.250 C 424.769 857.097, 423.506 857, 399.788 857 L 375 857 375 913.562 M 395.667 871.667 C 395.300 872.033, 395 890.933, 395 913.667 L 395 955 404.965 955 C 413.793 955, 415.048 954.779, 415.965 953.066 C 416.626 951.830, 417 937.393, 417 913.066 C 417 867.732, 417.958 871, 404.667 871 C 400.083 871, 396.033 871.300, 395.667 871.667 M 452.787 883.250 C 452.552 883.938, 452.415 900.928, 452.481 921.007 C 452.595 955.028, 452.736 957.784, 454.552 961.479 C 457.226 966.921, 461.620 969.212, 470.475 969.780 C 478.979 970.326, 484.126 968.927, 486.984 965.293 L 489 962.730 489 966.365 L 489 970 499 970 L 509 970 509 926 L 509 882 499 882 L 489 882 489 916.429 C 489 956.435, 489.543 954.271, 479.634 953.795 L 473.500 953.500 473.237 917.750 L 472.975 882 463.094 882 C 456.085 882, 453.090 882.363, 452.787 883.250 M 525 926 L 525 970 535 970 L 545 970 545 935.057 L 545 900.113 547.223 898.557 C 549.757 896.782, 556.194 896.498, 559.066 898.035 C 560.922 899.029, 561 900.496, 561 934.535 L 561 970 571.250 970 L 581.500 970 581.522 935.028 C 581.538 909.303, 581.859 899.741, 582.737 898.863 C 583.393 898.207, 586.339 897.471, 589.285 897.226 C 598.410 896.470, 598 894.690, 598 935.071 L 598 970 608.044 970 L 618.088 970 617.794 931.250 C 617.503 892.956, 617.473 892.457, 615.231 888.851 C 612.134 883.871, 607.077 881.999, 596.730 882.004 C 587.791 882.008, 582.294 884.158, 581.277 888.050 C 580.611 890.595, 580.193 890.516, 577.726 887.379 C 574.618 883.427, 570.078 881.996, 560.782 882.035 C 551.828 882.074, 548.545 883.232, 546.396 887.110 C 545.105 889.439, 545.070 889.404, 545.035 885.750 L 545 882 535 882 L 525 882 525 926 M 640.301 884.080 C 637.270 885.580, 635.516 887.368, 633.999 890.502 C 631.974 894.686, 631.908 896.035, 632.198 927.351 C 632.488 958.589, 632.582 959.967, 634.605 962.679 C 639.204 968.845, 641.739 969.500, 661 969.500 C 676.706 969.500, 678.901 969.290, 682.408 967.450 C 689.863 963.538, 690 962.790, 689.998 926.016 C 689.997 888.666, 689.912 888.220, 682.038 884.250 C 677.947 882.187, 676.201 882, 661.038 882.001 C 646.306 882.001, 644.041 882.229, 640.301 884.080 M 705 926 L 705 970 715 970 L 725 970 725 935.057 L 725 900.113 727.223 898.557 C 729.757 896.782, 736.194 896.498, 739.066 898.035 C 740.922 899.029, 741 900.496, 741 934.535 L 741 970 751.274 970 L 761.547 970 761.474 931.686 C 761.405 895.574, 761.289 893.180, 759.451 890.040 C 755.898 883.972, 752.891 882.540, 742.880 882.149 C 732.694 881.750, 728.657 882.918, 726.500 886.888 L 725.080 889.500 725.040 885.750 L 725 882 715 882 L 705 882 705 926 M 783.036 884.250 C 776.044 887.835, 775 890.857, 775 907.500 C 775 924.143, 776.044 927.165, 783.036 930.750 C 786.612 932.584, 789.063 933, 796.278 933 C 808.804 933, 809.003 933.169, 808.985 943.785 C 808.976 948.578, 808.602 953.078, 808.154 953.785 C 807.003 955.600, 801.015 956.359, 797.750 955.106 C 795.255 954.147, 795 953.584, 795 949.025 L 795 944 785 944 L 775 944 775 950.288 C 775 958.175, 777.978 964.575, 783 967.477 C 786.088 969.262, 788.264 969.500, 801.500 969.500 C 814.794 969.500, 816.955 969.262, 820.500 967.402 C 827.414 963.777, 828.500 960.668, 828.500 944.500 C 828.500 932.220, 828.250 930.074, 826.465 927.035 C 823.040 921.207, 819.019 919.583, 807.007 919.180 C 798.847 918.906, 796.221 918.469, 795.250 917.223 C 793.719 915.257, 793.557 900.697, 795.035 897.934 C 795.836 896.438, 797.137 896.003, 800.785 896.015 C 803.378 896.024, 806.034 896.370, 806.686 896.785 C 807.338 897.199, 808.013 899.780, 808.186 902.519 L 808.500 907.500 818 907.500 L 827.500 907.500 827.839 903.500 C 828.377 897.147, 826.287 889.650, 823.137 886.631 C 819.146 882.808, 815.193 882, 800.468 882 C 788.907 882, 786.925 882.256, 783.036 884.250 M 652.667 897.667 C 652.300 898.033, 652 910.543, 652 925.467 C 652 945.237, 652.326 952.926, 653.200 953.800 C 655.046 955.646, 667.496 955.361, 669.429 953.429 C 670.775 952.082, 671 948.206, 671 926.363 C 671 910.701, 670.601 900.123, 669.965 898.934 C 669.077 897.276, 667.818 897, 661.131 897 C 656.843 897, 653.033 897.300, 652.667 897.667" stroke="none" fill="#ecebeb" fill-rule="evenodd"/></svg>