<svg xmlns="http://www.w3.org/2000/svg" width="673" height="769" viewBox="0 0 673 769" version="1.1"><path d="M 170 71 L 170 107 338 107 L 506 107 506 71 L 506 35 338 35 L 170 35 170 71 M 240.125 112.557 C 224.712 115.262, 211.926 121.262, 199.868 131.450 C 186.850 142.449, 177.613 156.844, 172.807 173.623 C 170.943 180.134, 170.555 183.927, 170.570 195.500 C 170.591 211.792, 171.888 217.737, 178.423 231.500 C 192.195 260.504, 219.578 278.620, 251 279.514 C 262.716 279.847, 270.060 278.748, 280.820 275.050 C 309.200 265.296, 330.898 240.294, 336.406 211 L 337.628 204.500 339.859 214.135 C 347.077 245.298, 372.254 270.391, 404 278.062 C 413.013 280.240, 433.030 279.776, 442.289 277.174 C 467.904 269.975, 486.749 254.399, 497.548 231.500 C 503.817 218.208, 505.415 210.894, 505.415 195.500 C 505.415 179.613, 503.774 172.437, 496.941 158.455 C 489.071 142.349, 473.721 127.230, 457.356 119.464 C 434.980 108.845, 407.140 108.896, 385.773 119.593 C 367.213 128.885, 353.226 143.281, 344.772 161.794 C 341.460 169.049, 338.099 180.686, 337.927 185.500 C 337.868 187.150, 337.235 185.279, 336.521 181.342 C 332.502 159.194, 322.190 142.842, 302.141 126.823 C 296.686 122.465, 283.085 116.122, 274.500 113.932 C 264.660 111.423, 249.944 110.834, 240.125 112.557 M 241.854 285.122 C 234.599 286.046, 223.627 289.679, 214.993 294.016 C 197.568 302.771, 182 320.462, 175.219 339.213 C 163.056 372.848, 172.891 409.869, 200.070 432.757 C 216.527 446.616, 236.403 453.429, 257.500 452.443 C 288.327 451.001, 316.052 432.582, 329.436 404.653 C 333.763 395.624, 336.930 385.165, 337.073 379.436 C 337.113 377.821, 338.413 381.509, 339.961 387.631 C 354.638 445.680, 419.406 470.707, 469.281 437.601 C 485.136 427.078, 498.528 407.910, 503.590 388.500 C 506.092 378.904, 506.114 358.244, 503.632 348.500 C 500.515 336.258, 492.973 322.380, 484.456 313.212 C 466.058 293.409, 446.755 284.678, 421.500 284.738 C 407.173 284.772, 397.702 286.962, 385.279 293.112 C 366.866 302.228, 353.214 316.225, 344.942 334.468 C 341.634 341.763, 338.043 354.028, 337.910 358.480 C 337.861 360.141, 337.196 358.051, 336.433 353.834 C 333.295 336.488, 326.287 323.180, 313.562 310.396 C 300.423 297.197, 289.776 290.867, 274.189 286.988 C 264.824 284.657, 251.535 283.890, 241.854 285.122 M 170 492.933 L 170 528.871 180.750 529.186 C 186.662 529.359, 262.150 529.500, 348.500 529.500 L 505.500 529.500 505.500 493.500 L 505.500 457.500 337.750 457.247 L 170 456.994 170 492.933 M 108 679.562 L 108 736.125 133.250 735.812 C 156.376 735.526, 158.786 735.332, 161.895 733.500 C 163.763 732.400, 166.238 730.230, 167.395 728.678 C 169.453 725.918, 169.506 724.841, 169.764 680.178 C 170.066 628.033, 170.257 629.395, 162.038 625.250 C 157.769 623.097, 156.506 623, 132.788 623 L 108 623 108 679.562 M 128.667 637.667 C 128.300 638.033, 128 656.933, 128 679.667 L 128 721 137.965 721 C 146.793 721, 148.048 720.779, 148.965 719.066 C 149.626 717.830, 150 703.393, 150 679.066 C 150 633.732, 150.958 637, 137.667 637 C 133.083 637, 129.033 637.300, 128.667 637.667 M 185.787 649.250 C 185.552 649.938, 185.415 666.928, 185.481 687.007 C 185.595 721.028, 185.736 723.784, 187.552 727.479 C 190.226 732.921, 194.620 735.212, 203.475 735.780 C 211.979 736.326, 217.126 734.927, 219.984 731.293 L 222 728.730 222 732.365 L 222 736 232 736 L 242 736 242 692 L 242 648 232 648 L 222 648 222 682.429 C 222 722.435, 222.543 720.271, 212.634 719.795 L 206.500 719.500 206.237 683.750 L 205.975 648 196.094 648 C 189.085 648, 186.090 648.363, 185.787 649.250 M 258 692 L 258 736 268 736 L 278 736 278 701.057 L 278 666.113 280.223 664.557 C 282.757 662.782, 289.194 662.498, 292.066 664.035 C 293.922 665.029, 294 666.496, 294 700.535 L 294 736 304.250 736 L 314.500 736 314.522 701.028 C 314.538 675.303, 314.859 665.741, 315.737 664.863 C 316.393 664.207, 319.339 663.471, 322.285 663.226 C 331.410 662.470, 331 660.690, 331 701.071 L 331 736 341.044 736 L 351.088 736 350.794 697.250 C 350.503 658.956, 350.473 658.457, 348.231 654.851 C 345.134 649.871, 340.077 647.999, 329.730 648.004 C 320.791 648.008, 315.294 650.158, 314.277 654.050 C 313.611 656.595, 313.193 656.516, 310.726 653.379 C 307.618 649.427, 303.078 647.996, 293.782 648.035 C 284.828 648.074, 281.545 649.232, 279.396 653.110 C 278.105 655.439, 278.070 655.404, 278.035 651.750 L 278 648 268 648 L 258 648 258 692 M 373.301 650.080 C 370.270 651.580, 368.516 653.368, 366.999 656.502 C 364.974 660.686, 364.908 662.035, 365.198 693.351 C 365.488 724.589, 365.582 725.967, 367.605 728.679 C 372.204 734.845, 374.739 735.500, 394 735.500 C 409.706 735.500, 411.901 735.290, 415.408 733.450 C 422.863 729.538, 423 728.790, 422.998 692.016 C 422.997 654.666, 422.912 654.220, 415.038 650.250 C 410.947 648.187, 409.201 648, 394.038 648.001 C 379.306 648.001, 377.041 648.229, 373.301 650.080 M 438 692 L 438 736 448 736 L 458 736 458 701.057 L 458 666.113 460.223 664.557 C 462.757 662.782, 469.194 662.498, 472.066 664.035 C 473.922 665.029, 474 666.496, 474 700.535 L 474 736 484.274 736 L 494.547 736 494.474 697.686 C 494.405 661.574, 494.289 659.180, 492.451 656.040 C 488.898 649.972, 485.891 648.540, 475.880 648.149 C 465.694 647.750, 461.657 648.918, 459.500 652.888 L 458.080 655.500 458.040 651.750 L 458 648 448 648 L 438 648 438 692 M 516.036 650.250 C 509.044 653.835, 508 656.857, 508 673.500 C 508 690.143, 509.044 693.165, 516.036 696.750 C 519.612 698.584, 522.063 699, 529.278 699 C 541.804 699, 542.003 699.169, 541.985 709.785 C 541.976 714.578, 541.602 719.078, 541.154 719.785 C 540.003 721.600, 534.015 722.359, 530.750 721.106 C 528.255 720.147, 528 719.584, 528 715.025 L 528 710 518 710 L 508 710 508 716.288 C 508 724.175, 510.978 730.575, 516 733.477 C 519.088 735.262, 521.264 735.500, 534.500 735.500 C 547.794 735.500, 549.955 735.262, 553.500 733.402 C 560.414 729.777, 561.500 726.668, 561.500 710.500 C 561.500 698.220, 561.250 696.074, 559.465 693.035 C 556.040 687.207, 552.019 685.583, 540.007 685.180 C 531.847 684.906, 529.221 684.469, 528.250 683.223 C 526.719 681.257, 526.557 666.697, 528.035 663.934 C 528.836 662.438, 530.137 662.003, 533.785 662.015 C 536.378 662.024, 539.034 662.370, 539.686 662.785 C 540.338 663.199, 541.013 665.780, 541.186 668.519 L 541.500 673.500 551 673.500 L 560.500 673.500 560.839 669.500 C 561.377 663.147, 559.287 655.650, 556.137 652.631 C 552.146 648.808, 548.193 648, 533.468 648 C 521.907 648, 519.925 648.256, 516.036 650.250 M 385.667 663.667 C 385.300 664.033, 385 676.543, 385 691.467 C 385 711.237, 385.326 718.926, 386.200 719.800 C 388.046 721.646, 400.496 721.361, 402.429 719.429 C 403.775 718.082, 404 714.206, 404 692.363 C 404 676.701, 403.601 666.123, 402.965 664.934 C 402.077 663.276, 400.818 663, 394.131 663 C 389.843 663, 386.033 663.300, 385.667 663.667" stroke="none" fill="#d42424" fill-rule="evenodd"/><path d="M 0 384.501 L 0 769.003 336.750 768.751 L 673.500 768.500 673.751 384.250 L 674.003 0 337.001 0 L 0 0 0 384.501 M 0.495 385 C 0.495 596.475, 0.610 682.987, 0.750 577.250 C 0.890 471.512, 0.890 298.487, 0.750 192.750 C 0.610 87.012, 0.495 173.525, 0.495 385 M 170 71 L 170 107 338 107 L 506 107 506 71 L 506 35 338 35 L 170 35 170 71 M 240.125 112.557 C 224.712 115.262, 211.926 121.262, 199.868 131.450 C 186.850 142.449, 177.613 156.844, 172.807 173.623 C 170.943 180.134, 170.555 183.927, 170.570 195.500 C 170.591 211.792, 171.888 217.737, 178.423 231.500 C 192.195 260.504, 219.578 278.620, 251 279.514 C 262.716 279.847, 270.060 278.748, 280.820 275.050 C 309.200 265.296, 330.898 240.294, 336.406 211 L 337.628 204.500 339.859 214.135 C 347.077 245.298, 372.254 270.391, 404 278.062 C 413.013 280.240, 433.030 279.776, 442.289 277.174 C 467.904 269.975, 486.749 254.399, 497.548 231.500 C 503.817 218.208, 505.415 210.894, 505.415 195.500 C 505.415 179.613, 503.774 172.437, 496.941 158.455 C 489.071 142.349, 473.721 127.230, 457.356 119.464 C 434.980 108.845, 407.140 108.896, 385.773 119.593 C 367.213 128.885, 353.226 143.281, 344.772 161.794 C 341.460 169.049, 338.099 180.686, 337.927 185.500 C 337.868 187.150, 337.235 185.279, 336.521 181.342 C 332.502 159.194, 322.190 142.842, 302.141 126.823 C 296.686 122.465, 283.085 116.122, 274.500 113.932 C 264.660 111.423, 249.944 110.834, 240.125 112.557 M 241.854 285.122 C 234.599 286.046, 223.627 289.679, 214.993 294.016 C 197.568 302.771, 182 320.462, 175.219 339.213 C 163.056 372.848, 172.891 409.869, 200.070 432.757 C 216.527 446.616, 236.403 453.429, 257.500 452.443 C 288.327 451.001, 316.052 432.582, 329.436 404.653 C 333.763 395.624, 336.930 385.165, 337.073 379.436 C 337.113 377.821, 338.413 381.509, 339.961 387.631 C 354.638 445.680, 419.406 470.707, 469.281 437.601 C 485.136 427.078, 498.528 407.910, 503.590 388.500 C 506.092 378.904, 506.114 358.244, 503.632 348.500 C 500.515 336.258, 492.973 322.380, 484.456 313.212 C 466.058 293.409, 446.755 284.678, 421.500 284.738 C 407.173 284.772, 397.702 286.962, 385.279 293.112 C 366.866 302.228, 353.214 316.225, 344.942 334.468 C 341.634 341.763, 338.043 354.028, 337.910 358.480 C 337.861 360.141, 337.196 358.051, 336.433 353.834 C 333.295 336.488, 326.287 323.180, 313.562 310.396 C 300.423 297.197, 289.776 290.867, 274.189 286.988 C 264.824 284.657, 251.535 283.890, 241.854 285.122 M 170 492.933 L 170 528.871 180.750 529.186 C 186.662 529.359, 262.150 529.500, 348.500 529.500 L 505.500 529.500 505.500 493.500 L 505.500 457.500 337.750 457.247 L 170 456.994 170 492.933 M 108 679.562 L 108 736.125 133.250 735.812 C 156.376 735.526, 158.786 735.332, 161.895 733.500 C 163.763 732.400, 166.238 730.230, 167.395 728.678 C 169.453 725.918, 169.506 724.841, 169.764 680.178 C 170.066 628.033, 170.257 629.395, 162.038 625.250 C 157.769 623.097, 156.506 623, 132.788 623 L 108 623 108 679.562 M 128.667 637.667 C 128.300 638.033, 128 656.933, 128 679.667 L 128 721 137.965 721 C 146.793 721, 148.048 720.779, 148.965 719.066 C 149.626 717.830, 150 703.393, 150 679.066 C 150 633.732, 150.958 637, 137.667 637 C 133.083 637, 129.033 637.300, 128.667 637.667 M 185.787 649.250 C 185.552 649.938, 185.415 666.928, 185.481 687.007 C 185.595 721.028, 185.736 723.784, 187.552 727.479 C 190.226 732.921, 194.620 735.212, 203.475 735.780 C 211.979 736.326, 217.126 734.927, 219.984 731.293 L 222 728.730 222 732.365 L 222 736 232 736 L 242 736 242 692 L 242 648 232 648 L 222 648 222 682.429 C 222 722.435, 222.543 720.271, 212.634 719.795 L 206.500 719.500 206.237 683.750 L 205.975 648 196.094 648 C 189.085 648, 186.090 648.363, 185.787 649.250 M 258 692 L 258 736 268 736 L 278 736 278 701.057 L 278 666.113 280.223 664.557 C 282.757 662.782, 289.194 662.498, 292.066 664.035 C 293.922 665.029, 294 666.496, 294 700.535 L 294 736 304.250 736 L 314.500 736 314.522 701.028 C 314.538 675.303, 314.859 665.741, 315.737 664.863 C 316.393 664.207, 319.339 663.471, 322.285 663.226 C 331.410 662.470, 331 660.690, 331 701.071 L 331 736 341.044 736 L 351.088 736 350.794 697.250 C 350.503 658.956, 350.473 658.457, 348.231 654.851 C 345.134 649.871, 340.077 647.999, 329.730 648.004 C 320.791 648.008, 315.294 650.158, 314.277 654.050 C 313.611 656.595, 313.193 656.516, 310.726 653.379 C 307.618 649.427, 303.078 647.996, 293.782 648.035 C 284.828 648.074, 281.545 649.232, 279.396 653.110 C 278.105 655.439, 278.070 655.404, 278.035 651.750 L 278 648 268 648 L 258 648 258 692 M 373.301 650.080 C 370.270 651.580, 368.516 653.368, 366.999 656.502 C 364.974 660.686, 364.908 662.035, 365.198 693.351 C 365.488 724.589, 365.582 725.967, 367.605 728.679 C 372.204 734.845, 374.739 735.500, 394 735.500 C 409.706 735.500, 411.901 735.290, 415.408 733.450 C 422.863 729.538, 423 728.790, 422.998 692.016 C 422.997 654.666, 422.912 654.220, 415.038 650.250 C 410.947 648.187, 409.201 648, 394.038 648.001 C 379.306 648.001, 377.041 648.229, 373.301 650.080 M 438 692 L 438 736 448 736 L 458 736 458 701.057 L 458 666.113 460.223 664.557 C 462.757 662.782, 469.194 662.498, 472.066 664.035 C 473.922 665.029, 474 666.496, 474 700.535 L 474 736 484.274 736 L 494.547 736 494.474 697.686 C 494.405 661.574, 494.289 659.180, 492.451 656.040 C 488.898 649.972, 485.891 648.540, 475.880 648.149 C 465.694 647.750, 461.657 648.918, 459.500 652.888 L 458.080 655.500 458.040 651.750 L 458 648 448 648 L 438 648 438 692 M 516.036 650.250 C 509.044 653.835, 508 656.857, 508 673.500 C 508 690.143, 509.044 693.165, 516.036 696.750 C 519.612 698.584, 522.063 699, 529.278 699 C 541.804 699, 542.003 699.169, 541.985 709.785 C 541.976 714.578, 541.602 719.078, 541.154 719.785 C 540.003 721.600, 534.015 722.359, 530.750 721.106 C 528.255 720.147, 528 719.584, 528 715.025 L 528 710 518 710 L 508 710 508 716.288 C 508 724.175, 510.978 730.575, 516 733.477 C 519.088 735.262, 521.264 735.500, 534.500 735.500 C 547.794 735.500, 549.955 735.262, 553.500 733.402 C 560.414 729.777, 561.500 726.668, 561.500 710.500 C 561.500 698.220, 561.250 696.074, 559.465 693.035 C 556.040 687.207, 552.019 685.583, 540.007 685.180 C 531.847 684.906, 529.221 684.469, 528.250 683.223 C 526.719 681.257, 526.557 666.697, 528.035 663.934 C 528.836 662.438, 530.137 662.003, 533.785 662.015 C 536.378 662.024, 539.034 662.370, 539.686 662.785 C 540.338 663.199, 541.013 665.780, 541.186 668.519 L 541.500 673.500 551 673.500 L 560.500 673.500 560.839 669.500 C 561.377 663.147, 559.287 655.650, 556.137 652.631 C 552.146 648.808, 548.193 648, 533.468 648 C 521.907 648, 519.925 648.256, 516.036 650.250 M 385.667 663.667 C 385.300 664.033, 385 676.543, 385 691.467 C 385 711.237, 385.326 718.926, 386.200 719.800 C 388.046 721.646, 400.496 721.361, 402.429 719.429 C 403.775 718.082, 404 714.206, 404 692.363 C 404 676.701, 403.601 666.123, 402.965 664.934 C 402.077 663.276, 400.818 663, 394.131 663 C 389.843 663, 386.033 663.300, 385.667 663.667" stroke="none" fill="#ecebeb" fill-rule="evenodd"/></svg>